<mxfile host="Electron" modified="2024-04-30T01:38:57.307Z" agent="Mozilla/5.0 (Windows NT 10.0; Win64; x64) AppleWebKit/537.36 (KHTML, like Gecko) draw.io/21.2.8 Chrome/112.0.5615.165 Electron/24.2.0 Safari/537.36" etag="hpW4sFzD3qs77PmNJAlK" version="21.2.8" type="device">
  <diagram name="Page-1" id="ac0-5Axkzdwwxx8cRdzC">
    <mxGraphModel dx="1538" dy="463" grid="1" gridSize="10" guides="1" tooltips="1" connect="1" arrows="1" fold="1" page="1" pageScale="1" pageWidth="827" pageHeight="1169" math="0" shadow="0">
      <root>
        <mxCell id="0" />
        <mxCell id="1" parent="0" />
        <mxCell id="ugWdAH9gTy0CYIlYv7zM-1" value="&lt;font face=&quot;Verdana&quot; style=&quot;font-size: 16px;&quot;&gt;&lt;b&gt;0&lt;/b&gt;&lt;/font&gt;" style="rounded=0;whiteSpace=wrap;html=1;fillColor=#e1d5e7;strokeColor=#0d0c0d;" vertex="1" parent="1">
          <mxGeometry x="-720" y="240" width="40" height="30" as="geometry" />
        </mxCell>
        <mxCell id="ugWdAH9gTy0CYIlYv7zM-2" value="&lt;font face=&quot;Verdana&quot; style=&quot;font-size: 16px;&quot;&gt;&lt;b&gt;3&lt;/b&gt;&lt;/font&gt;" style="rounded=0;whiteSpace=wrap;html=1;fillColor=#fad7ac;strokeColor=#181716;" vertex="1" parent="1">
          <mxGeometry x="-720" y="150" width="40" height="90" as="geometry" />
        </mxCell>
        <mxCell id="ugWdAH9gTy0CYIlYv7zM-3" value="&lt;font face=&quot;Verdana&quot; style=&quot;font-size: 16px;&quot;&gt;&lt;b&gt;2&lt;/b&gt;&lt;/font&gt;" style="rounded=0;whiteSpace=wrap;html=1;fillColor=#fad7ac;strokeColor=#181716;" vertex="1" parent="1">
          <mxGeometry x="-680" y="180" width="40" height="60" as="geometry" />
        </mxCell>
        <mxCell id="ugWdAH9gTy0CYIlYv7zM-4" value="&lt;font face=&quot;Verdana&quot; style=&quot;font-size: 16px;&quot;&gt;&lt;b&gt;1&lt;/b&gt;&lt;/font&gt;" style="rounded=0;whiteSpace=wrap;html=1;fillColor=#b1ddf0;strokeColor=#181716;" vertex="1" parent="1">
          <mxGeometry x="-640" y="210" width="40" height="30" as="geometry" />
        </mxCell>
        <mxCell id="ugWdAH9gTy0CYIlYv7zM-5" value="&lt;font face=&quot;Verdana&quot; style=&quot;font-size: 16px;&quot;&gt;&lt;b&gt;1&lt;/b&gt;&lt;/font&gt;" style="rounded=0;whiteSpace=wrap;html=1;fillColor=#e1d5e7;strokeColor=#0d0c0d;" vertex="1" parent="1">
          <mxGeometry x="-680" y="240" width="40" height="30" as="geometry" />
        </mxCell>
        <mxCell id="ugWdAH9gTy0CYIlYv7zM-6" value="&lt;font face=&quot;Verdana&quot; style=&quot;font-size: 16px;&quot;&gt;&lt;b&gt;2&lt;/b&gt;&lt;/font&gt;" style="rounded=0;whiteSpace=wrap;html=1;fillColor=#e1d5e7;strokeColor=#0d0c0d;" vertex="1" parent="1">
          <mxGeometry x="-640" y="240" width="40" height="30" as="geometry" />
        </mxCell>
        <mxCell id="ugWdAH9gTy0CYIlYv7zM-7" value="" style="endArrow=classic;html=1;rounded=0;" edge="1" parent="1">
          <mxGeometry width="50" height="50" relative="1" as="geometry">
            <mxPoint x="-700" y="120" as="sourcePoint" />
            <mxPoint x="-700" y="150" as="targetPoint" />
          </mxGeometry>
        </mxCell>
        <mxCell id="ugWdAH9gTy0CYIlYv7zM-8" value="&lt;b&gt;&lt;font face=&quot;Verdana&quot; style=&quot;font-size: 16px;&quot;&gt;i&lt;/font&gt;&lt;/b&gt;" style="text;html=1;align=center;verticalAlign=middle;resizable=0;points=[];autosize=1;strokeColor=none;fillColor=none;" vertex="1" parent="1">
          <mxGeometry x="-715" y="89" width="30" height="30" as="geometry" />
        </mxCell>
        <mxCell id="ugWdAH9gTy0CYIlYv7zM-9" value="" style="endArrow=classic;html=1;rounded=0;entryX=0.5;entryY=0;entryDx=0;entryDy=0;" edge="1" parent="1" target="ugWdAH9gTy0CYIlYv7zM-3">
          <mxGeometry width="50" height="50" relative="1" as="geometry">
            <mxPoint x="-660" y="120" as="sourcePoint" />
            <mxPoint x="-660" y="150" as="targetPoint" />
          </mxGeometry>
        </mxCell>
        <mxCell id="ugWdAH9gTy0CYIlYv7zM-10" value="&lt;b&gt;&lt;font face=&quot;Verdana&quot; style=&quot;font-size: 16px;&quot;&gt;i+1&lt;/font&gt;&lt;/b&gt;" style="text;html=1;align=center;verticalAlign=middle;resizable=0;points=[];autosize=1;strokeColor=none;fillColor=none;" vertex="1" parent="1">
          <mxGeometry x="-684" y="89" width="50" height="30" as="geometry" />
        </mxCell>
        <mxCell id="ugWdAH9gTy0CYIlYv7zM-11" value="&lt;font face=&quot;Verdana&quot; style=&quot;font-size: 16px;&quot;&gt;&lt;b&gt;0&lt;/b&gt;&lt;/font&gt;" style="rounded=0;whiteSpace=wrap;html=1;fillColor=#e1d5e7;strokeColor=#0d0c0d;" vertex="1" parent="1">
          <mxGeometry x="-569" y="240" width="40" height="30" as="geometry" />
        </mxCell>
        <mxCell id="ugWdAH9gTy0CYIlYv7zM-12" value="&lt;font face=&quot;Verdana&quot; style=&quot;font-size: 16px;&quot;&gt;&lt;b&gt;3&lt;/b&gt;&lt;/font&gt;" style="rounded=0;whiteSpace=wrap;html=1;fillColor=#fad7ac;strokeColor=#181716;" vertex="1" parent="1">
          <mxGeometry x="-529" y="150" width="40" height="90" as="geometry" />
        </mxCell>
        <mxCell id="ugWdAH9gTy0CYIlYv7zM-13" value="&lt;font face=&quot;Verdana&quot; style=&quot;font-size: 16px;&quot;&gt;&lt;b&gt;2&lt;/b&gt;&lt;/font&gt;" style="rounded=0;whiteSpace=wrap;html=1;fillColor=#fad7ac;strokeColor=#181716;" vertex="1" parent="1">
          <mxGeometry x="-569" y="180" width="40" height="60" as="geometry" />
        </mxCell>
        <mxCell id="ugWdAH9gTy0CYIlYv7zM-14" value="&lt;font face=&quot;Verdana&quot; style=&quot;font-size: 16px;&quot;&gt;&lt;b&gt;1&lt;/b&gt;&lt;/font&gt;" style="rounded=0;whiteSpace=wrap;html=1;fillColor=#b1ddf0;strokeColor=#181716;" vertex="1" parent="1">
          <mxGeometry x="-489" y="210" width="40" height="30" as="geometry" />
        </mxCell>
        <mxCell id="ugWdAH9gTy0CYIlYv7zM-15" value="&lt;font face=&quot;Verdana&quot; style=&quot;font-size: 16px;&quot;&gt;&lt;b&gt;1&lt;/b&gt;&lt;/font&gt;" style="rounded=0;whiteSpace=wrap;html=1;fillColor=#e1d5e7;strokeColor=#0d0c0d;" vertex="1" parent="1">
          <mxGeometry x="-529" y="240" width="40" height="30" as="geometry" />
        </mxCell>
        <mxCell id="ugWdAH9gTy0CYIlYv7zM-16" value="&lt;font face=&quot;Verdana&quot; style=&quot;font-size: 16px;&quot;&gt;&lt;b&gt;2&lt;/b&gt;&lt;/font&gt;" style="rounded=0;whiteSpace=wrap;html=1;fillColor=#e1d5e7;strokeColor=#0d0c0d;" vertex="1" parent="1">
          <mxGeometry x="-489" y="240" width="40" height="30" as="geometry" />
        </mxCell>
        <mxCell id="ugWdAH9gTy0CYIlYv7zM-17" value="" style="endArrow=classic;html=1;rounded=0;entryX=0.5;entryY=0;entryDx=0;entryDy=0;" edge="1" parent="1" target="ugWdAH9gTy0CYIlYv7zM-13">
          <mxGeometry width="50" height="50" relative="1" as="geometry">
            <mxPoint x="-549" y="120" as="sourcePoint" />
            <mxPoint x="-549" y="150" as="targetPoint" />
          </mxGeometry>
        </mxCell>
        <mxCell id="ugWdAH9gTy0CYIlYv7zM-18" value="&lt;b&gt;&lt;font face=&quot;Verdana&quot; style=&quot;font-size: 16px;&quot;&gt;i&lt;/font&gt;&lt;/b&gt;" style="text;html=1;align=center;verticalAlign=middle;resizable=0;points=[];autosize=1;strokeColor=none;fillColor=none;" vertex="1" parent="1">
          <mxGeometry x="-564" y="89" width="30" height="30" as="geometry" />
        </mxCell>
        <mxCell id="ugWdAH9gTy0CYIlYv7zM-20" value="&lt;b&gt;&lt;font face=&quot;Verdana&quot; style=&quot;font-size: 16px;&quot;&gt;i+1&lt;/font&gt;&lt;/b&gt;" style="text;html=1;align=center;verticalAlign=middle;resizable=0;points=[];autosize=1;strokeColor=none;fillColor=none;" vertex="1" parent="1">
          <mxGeometry x="-533" y="89" width="50" height="30" as="geometry" />
        </mxCell>
        <mxCell id="ugWdAH9gTy0CYIlYv7zM-22" value="" style="endArrow=classic;html=1;rounded=0;" edge="1" parent="1">
          <mxGeometry width="50" height="50" relative="1" as="geometry">
            <mxPoint x="-510" y="120" as="sourcePoint" />
            <mxPoint x="-510" y="150" as="targetPoint" />
          </mxGeometry>
        </mxCell>
        <mxCell id="ugWdAH9gTy0CYIlYv7zM-23" value="&lt;font face=&quot;Verdana&quot; style=&quot;font-size: 16px;&quot;&gt;&lt;b&gt;0&lt;/b&gt;&lt;/font&gt;" style="rounded=0;whiteSpace=wrap;html=1;fillColor=#e1d5e7;strokeColor=#0d0c0d;" vertex="1" parent="1">
          <mxGeometry x="-419" y="240" width="40" height="30" as="geometry" />
        </mxCell>
        <mxCell id="ugWdAH9gTy0CYIlYv7zM-24" value="&lt;font face=&quot;Verdana&quot; style=&quot;font-size: 16px;&quot;&gt;&lt;b&gt;3&lt;/b&gt;&lt;/font&gt;" style="rounded=0;whiteSpace=wrap;html=1;fillColor=#fad7ac;strokeColor=#181716;" vertex="1" parent="1">
          <mxGeometry x="-339" y="150" width="40" height="90" as="geometry" />
        </mxCell>
        <mxCell id="ugWdAH9gTy0CYIlYv7zM-25" value="&lt;font face=&quot;Verdana&quot; style=&quot;font-size: 16px;&quot;&gt;&lt;b&gt;2&lt;/b&gt;&lt;/font&gt;" style="rounded=0;whiteSpace=wrap;html=1;fillColor=#b1ddf0;strokeColor=#0c0d0d;" vertex="1" parent="1">
          <mxGeometry x="-419" y="180" width="40" height="60" as="geometry" />
        </mxCell>
        <mxCell id="ugWdAH9gTy0CYIlYv7zM-26" value="&lt;font face=&quot;Verdana&quot; style=&quot;font-size: 16px;&quot;&gt;&lt;b&gt;1&lt;/b&gt;&lt;/font&gt;" style="rounded=0;whiteSpace=wrap;html=1;fillColor=#fad7ac;strokeColor=#000000;" vertex="1" parent="1">
          <mxGeometry x="-379" y="210" width="40" height="30" as="geometry" />
        </mxCell>
        <mxCell id="ugWdAH9gTy0CYIlYv7zM-27" value="&lt;font face=&quot;Verdana&quot; style=&quot;font-size: 16px;&quot;&gt;&lt;b&gt;1&lt;/b&gt;&lt;/font&gt;" style="rounded=0;whiteSpace=wrap;html=1;fillColor=#e1d5e7;strokeColor=#0d0c0d;" vertex="1" parent="1">
          <mxGeometry x="-379" y="240" width="40" height="30" as="geometry" />
        </mxCell>
        <mxCell id="ugWdAH9gTy0CYIlYv7zM-28" value="&lt;font face=&quot;Verdana&quot; style=&quot;font-size: 16px;&quot;&gt;&lt;b&gt;2&lt;/b&gt;&lt;/font&gt;" style="rounded=0;whiteSpace=wrap;html=1;fillColor=#e1d5e7;strokeColor=#0d0c0d;" vertex="1" parent="1">
          <mxGeometry x="-339" y="240" width="40" height="30" as="geometry" />
        </mxCell>
        <mxCell id="ugWdAH9gTy0CYIlYv7zM-29" value="" style="endArrow=classic;html=1;rounded=0;entryX=0.5;entryY=0;entryDx=0;entryDy=0;" edge="1" parent="1" target="ugWdAH9gTy0CYIlYv7zM-26">
          <mxGeometry width="50" height="50" relative="1" as="geometry">
            <mxPoint x="-359" y="120" as="sourcePoint" />
            <mxPoint x="-359" y="180" as="targetPoint" />
          </mxGeometry>
        </mxCell>
        <mxCell id="ugWdAH9gTy0CYIlYv7zM-30" value="&lt;b&gt;&lt;font face=&quot;Verdana&quot; style=&quot;font-size: 16px;&quot;&gt;i&lt;/font&gt;&lt;/b&gt;" style="text;html=1;align=center;verticalAlign=middle;resizable=0;points=[];autosize=1;strokeColor=none;fillColor=none;" vertex="1" parent="1">
          <mxGeometry x="-374" y="89" width="30" height="30" as="geometry" />
        </mxCell>
        <mxCell id="ugWdAH9gTy0CYIlYv7zM-31" value="&lt;b&gt;&lt;font face=&quot;Verdana&quot; style=&quot;font-size: 16px;&quot;&gt;i+1&lt;/font&gt;&lt;/b&gt;" style="text;html=1;align=center;verticalAlign=middle;resizable=0;points=[];autosize=1;strokeColor=none;fillColor=none;" vertex="1" parent="1">
          <mxGeometry x="-343" y="89" width="50" height="30" as="geometry" />
        </mxCell>
        <mxCell id="ugWdAH9gTy0CYIlYv7zM-32" value="" style="endArrow=classic;html=1;rounded=0;" edge="1" parent="1">
          <mxGeometry width="50" height="50" relative="1" as="geometry">
            <mxPoint x="-320" y="120" as="sourcePoint" />
            <mxPoint x="-320" y="150" as="targetPoint" />
          </mxGeometry>
        </mxCell>
        <mxCell id="ugWdAH9gTy0CYIlYv7zM-33" value="&lt;font face=&quot;Verdana&quot; style=&quot;font-size: 16px;&quot;&gt;&lt;b&gt;0&lt;/b&gt;&lt;/font&gt;" style="rounded=0;whiteSpace=wrap;html=1;fillColor=#e1d5e7;strokeColor=#0d0c0d;" vertex="1" parent="1">
          <mxGeometry x="-269" y="240" width="40" height="30" as="geometry" />
        </mxCell>
        <mxCell id="ugWdAH9gTy0CYIlYv7zM-34" value="&lt;font face=&quot;Verdana&quot; style=&quot;font-size: 16px;&quot;&gt;&lt;b&gt;3&lt;/b&gt;&lt;/font&gt;" style="rounded=0;whiteSpace=wrap;html=1;fillColor=#bac8d3;strokeColor=#1a1c1f;" vertex="1" parent="1">
          <mxGeometry x="-189" y="150" width="40" height="90" as="geometry" />
        </mxCell>
        <mxCell id="ugWdAH9gTy0CYIlYv7zM-35" value="&lt;font face=&quot;Verdana&quot; style=&quot;font-size: 16px;&quot;&gt;&lt;b&gt;2&lt;/b&gt;&lt;/font&gt;" style="rounded=0;whiteSpace=wrap;html=1;fillColor=#b1ddf0;strokeColor=#0c0d0d;" vertex="1" parent="1">
          <mxGeometry x="-269" y="180" width="40" height="60" as="geometry" />
        </mxCell>
        <mxCell id="ugWdAH9gTy0CYIlYv7zM-36" value="&lt;font face=&quot;Verdana&quot; style=&quot;font-size: 16px;&quot;&gt;&lt;b&gt;1&lt;/b&gt;&lt;/font&gt;" style="rounded=0;whiteSpace=wrap;html=1;fillColor=#b1ddf0;strokeColor=#0f0f10;" vertex="1" parent="1">
          <mxGeometry x="-229" y="210" width="40" height="30" as="geometry" />
        </mxCell>
        <mxCell id="ugWdAH9gTy0CYIlYv7zM-37" value="&lt;font face=&quot;Verdana&quot; style=&quot;font-size: 16px;&quot;&gt;&lt;b&gt;1&lt;/b&gt;&lt;/font&gt;" style="rounded=0;whiteSpace=wrap;html=1;fillColor=#e1d5e7;strokeColor=#0d0c0d;" vertex="1" parent="1">
          <mxGeometry x="-229" y="240" width="40" height="30" as="geometry" />
        </mxCell>
        <mxCell id="ugWdAH9gTy0CYIlYv7zM-38" value="&lt;font face=&quot;Verdana&quot; style=&quot;font-size: 16px;&quot;&gt;&lt;b&gt;2&lt;/b&gt;&lt;/font&gt;" style="rounded=0;whiteSpace=wrap;html=1;fillColor=#e1d5e7;strokeColor=#0d0c0d;" vertex="1" parent="1">
          <mxGeometry x="-189" y="240" width="40" height="30" as="geometry" />
        </mxCell>
        <mxCell id="ugWdAH9gTy0CYIlYv7zM-43" value="&lt;font face=&quot;Verdana&quot; style=&quot;font-size: 16px;&quot;&gt;&lt;b&gt;0&lt;/b&gt;&lt;/font&gt;" style="rounded=0;whiteSpace=wrap;html=1;fillColor=#e1d5e7;strokeColor=#0d0c0d;" vertex="1" parent="1">
          <mxGeometry x="-719" y="447" width="40" height="30" as="geometry" />
        </mxCell>
        <mxCell id="ugWdAH9gTy0CYIlYv7zM-44" value="&lt;font face=&quot;Verdana&quot; style=&quot;font-size: 16px;&quot;&gt;&lt;b&gt;3&lt;/b&gt;&lt;/font&gt;" style="rounded=0;whiteSpace=wrap;html=1;fillColor=#bac8d3;strokeColor=#1a1c1f;" vertex="1" parent="1">
          <mxGeometry x="-639" y="357" width="40" height="90" as="geometry" />
        </mxCell>
        <mxCell id="ugWdAH9gTy0CYIlYv7zM-45" value="&lt;font face=&quot;Verdana&quot; style=&quot;font-size: 16px;&quot;&gt;&lt;b&gt;2&lt;/b&gt;&lt;/font&gt;" style="rounded=0;whiteSpace=wrap;html=1;fillColor=#fad7ac;strokeColor=#000000;" vertex="1" parent="1">
          <mxGeometry x="-719" y="387" width="40" height="60" as="geometry" />
        </mxCell>
        <mxCell id="ugWdAH9gTy0CYIlYv7zM-46" value="&lt;font face=&quot;Verdana&quot; style=&quot;font-size: 16px;&quot;&gt;&lt;b&gt;1&lt;/b&gt;&lt;/font&gt;" style="rounded=0;whiteSpace=wrap;html=1;fillColor=#fad7ac;strokeColor=#000000;" vertex="1" parent="1">
          <mxGeometry x="-679" y="417" width="40" height="30" as="geometry" />
        </mxCell>
        <mxCell id="ugWdAH9gTy0CYIlYv7zM-47" value="&lt;font face=&quot;Verdana&quot; style=&quot;font-size: 16px;&quot;&gt;&lt;b&gt;1&lt;/b&gt;&lt;/font&gt;" style="rounded=0;whiteSpace=wrap;html=1;fillColor=#e1d5e7;strokeColor=#0d0c0d;" vertex="1" parent="1">
          <mxGeometry x="-679" y="447" width="40" height="30" as="geometry" />
        </mxCell>
        <mxCell id="ugWdAH9gTy0CYIlYv7zM-48" value="&lt;font face=&quot;Verdana&quot; style=&quot;font-size: 16px;&quot;&gt;&lt;b&gt;2&lt;/b&gt;&lt;/font&gt;" style="rounded=0;whiteSpace=wrap;html=1;fillColor=#e1d5e7;strokeColor=#0d0c0d;" vertex="1" parent="1">
          <mxGeometry x="-639" y="447" width="40" height="30" as="geometry" />
        </mxCell>
        <mxCell id="ugWdAH9gTy0CYIlYv7zM-49" value="" style="endArrow=classic;html=1;rounded=0;entryX=0.5;entryY=0;entryDx=0;entryDy=0;" edge="1" parent="1" target="ugWdAH9gTy0CYIlYv7zM-45">
          <mxGeometry width="50" height="50" relative="1" as="geometry">
            <mxPoint x="-699" y="330" as="sourcePoint" />
            <mxPoint x="-700" y="356" as="targetPoint" />
          </mxGeometry>
        </mxCell>
        <mxCell id="ugWdAH9gTy0CYIlYv7zM-50" value="&lt;b&gt;&lt;font face=&quot;Verdana&quot; style=&quot;font-size: 16px;&quot;&gt;i&lt;/font&gt;&lt;/b&gt;" style="text;html=1;align=center;verticalAlign=middle;resizable=0;points=[];autosize=1;strokeColor=none;fillColor=none;" vertex="1" parent="1">
          <mxGeometry x="-714" y="296" width="30" height="30" as="geometry" />
        </mxCell>
        <mxCell id="ugWdAH9gTy0CYIlYv7zM-51" value="" style="endArrow=classic;html=1;rounded=0;entryX=0.5;entryY=0;entryDx=0;entryDy=0;" edge="1" parent="1">
          <mxGeometry width="50" height="50" relative="1" as="geometry">
            <mxPoint x="-660" y="330" as="sourcePoint" />
            <mxPoint x="-660" y="416" as="targetPoint" />
          </mxGeometry>
        </mxCell>
        <mxCell id="ugWdAH9gTy0CYIlYv7zM-52" value="&lt;b&gt;&lt;font face=&quot;Verdana&quot; style=&quot;font-size: 16px;&quot;&gt;i+1&lt;/font&gt;&lt;/b&gt;" style="text;html=1;align=center;verticalAlign=middle;resizable=0;points=[];autosize=1;strokeColor=none;fillColor=none;" vertex="1" parent="1">
          <mxGeometry x="-680" y="296" width="50" height="30" as="geometry" />
        </mxCell>
        <mxCell id="ugWdAH9gTy0CYIlYv7zM-53" value="&lt;font face=&quot;Verdana&quot; style=&quot;font-size: 16px;&quot;&gt;&lt;b&gt;0&lt;/b&gt;&lt;/font&gt;" style="rounded=0;whiteSpace=wrap;html=1;fillColor=#e1d5e7;strokeColor=#0d0c0d;" vertex="1" parent="1">
          <mxGeometry x="-569" y="447" width="40" height="30" as="geometry" />
        </mxCell>
        <mxCell id="ugWdAH9gTy0CYIlYv7zM-54" value="&lt;font face=&quot;Verdana&quot; style=&quot;font-size: 16px;&quot;&gt;&lt;b&gt;3&lt;/b&gt;&lt;/font&gt;" style="rounded=0;whiteSpace=wrap;html=1;fillColor=#bac8d3;strokeColor=#1a1c1f;" vertex="1" parent="1">
          <mxGeometry x="-489" y="357" width="40" height="90" as="geometry" />
        </mxCell>
        <mxCell id="ugWdAH9gTy0CYIlYv7zM-55" value="&lt;font face=&quot;Verdana&quot; style=&quot;font-size: 16px;&quot;&gt;&lt;b&gt;2&lt;/b&gt;&lt;/font&gt;" style="rounded=0;whiteSpace=wrap;html=1;fillColor=#fad7ac;strokeColor=#000000;" vertex="1" parent="1">
          <mxGeometry x="-529" y="387" width="40" height="60" as="geometry" />
        </mxCell>
        <mxCell id="ugWdAH9gTy0CYIlYv7zM-56" value="&lt;font face=&quot;Verdana&quot; style=&quot;font-size: 16px;&quot;&gt;&lt;b&gt;1&lt;/b&gt;&lt;/font&gt;" style="rounded=0;whiteSpace=wrap;html=1;fillColor=#fad7ac;strokeColor=#000000;" vertex="1" parent="1">
          <mxGeometry x="-569" y="417" width="40" height="30" as="geometry" />
        </mxCell>
        <mxCell id="ugWdAH9gTy0CYIlYv7zM-57" value="&lt;font face=&quot;Verdana&quot; style=&quot;font-size: 16px;&quot;&gt;&lt;b&gt;1&lt;/b&gt;&lt;/font&gt;" style="rounded=0;whiteSpace=wrap;html=1;fillColor=#e1d5e7;strokeColor=#0d0c0d;" vertex="1" parent="1">
          <mxGeometry x="-529" y="447" width="40" height="30" as="geometry" />
        </mxCell>
        <mxCell id="ugWdAH9gTy0CYIlYv7zM-58" value="&lt;font face=&quot;Verdana&quot; style=&quot;font-size: 16px;&quot;&gt;&lt;b&gt;2&lt;/b&gt;&lt;/font&gt;" style="rounded=0;whiteSpace=wrap;html=1;fillColor=#e1d5e7;strokeColor=#0d0c0d;" vertex="1" parent="1">
          <mxGeometry x="-489" y="447" width="40" height="30" as="geometry" />
        </mxCell>
        <mxCell id="ugWdAH9gTy0CYIlYv7zM-60" value="&lt;b&gt;&lt;font face=&quot;Verdana&quot; style=&quot;font-size: 16px;&quot;&gt;i&lt;/font&gt;&lt;/b&gt;" style="text;html=1;align=center;verticalAlign=middle;resizable=0;points=[];autosize=1;strokeColor=none;fillColor=none;" vertex="1" parent="1">
          <mxGeometry x="-564" y="296" width="30" height="30" as="geometry" />
        </mxCell>
        <mxCell id="ugWdAH9gTy0CYIlYv7zM-61" value="" style="endArrow=classic;html=1;rounded=0;" edge="1" parent="1">
          <mxGeometry width="50" height="50" relative="1" as="geometry">
            <mxPoint x="-510" y="330" as="sourcePoint" />
            <mxPoint x="-510" y="390" as="targetPoint" />
          </mxGeometry>
        </mxCell>
        <mxCell id="ugWdAH9gTy0CYIlYv7zM-62" value="&lt;b&gt;&lt;font face=&quot;Verdana&quot; style=&quot;font-size: 16px;&quot;&gt;i+1&lt;/font&gt;&lt;/b&gt;" style="text;html=1;align=center;verticalAlign=middle;resizable=0;points=[];autosize=1;strokeColor=none;fillColor=none;" vertex="1" parent="1">
          <mxGeometry x="-530" y="296" width="50" height="30" as="geometry" />
        </mxCell>
        <mxCell id="ugWdAH9gTy0CYIlYv7zM-64" value="" style="endArrow=classic;html=1;rounded=0;entryX=0.5;entryY=0;entryDx=0;entryDy=0;" edge="1" parent="1">
          <mxGeometry width="50" height="50" relative="1" as="geometry">
            <mxPoint x="-550" y="330" as="sourcePoint" />
            <mxPoint x="-550" y="416" as="targetPoint" />
          </mxGeometry>
        </mxCell>
        <mxCell id="ugWdAH9gTy0CYIlYv7zM-65" value="&lt;font face=&quot;Verdana&quot; style=&quot;font-size: 16px;&quot;&gt;&lt;b&gt;0&lt;/b&gt;&lt;/font&gt;" style="rounded=0;whiteSpace=wrap;html=1;fillColor=#e1d5e7;strokeColor=#0d0c0d;" vertex="1" parent="1">
          <mxGeometry x="-419" y="447" width="40" height="30" as="geometry" />
        </mxCell>
        <mxCell id="ugWdAH9gTy0CYIlYv7zM-66" value="&lt;font face=&quot;Verdana&quot; style=&quot;font-size: 16px;&quot;&gt;&lt;b&gt;3&lt;/b&gt;&lt;/font&gt;" style="rounded=0;whiteSpace=wrap;html=1;fillColor=#bac8d3;strokeColor=#1a1c1f;" vertex="1" parent="1">
          <mxGeometry x="-339" y="357" width="40" height="90" as="geometry" />
        </mxCell>
        <mxCell id="ugWdAH9gTy0CYIlYv7zM-67" value="&lt;font face=&quot;Verdana&quot; style=&quot;font-size: 16px;&quot;&gt;&lt;b&gt;2&lt;/b&gt;&lt;/font&gt;" style="rounded=0;whiteSpace=wrap;html=1;fillColor=#bac8d3;strokeColor=#050505;" vertex="1" parent="1">
          <mxGeometry x="-379" y="387" width="40" height="60" as="geometry" />
        </mxCell>
        <mxCell id="ugWdAH9gTy0CYIlYv7zM-68" value="&lt;font face=&quot;Verdana&quot; style=&quot;font-size: 16px;&quot;&gt;&lt;b&gt;1&lt;/b&gt;&lt;/font&gt;" style="rounded=0;whiteSpace=wrap;html=1;fillColor=#b1ddf0;strokeColor=#0a0a0b;" vertex="1" parent="1">
          <mxGeometry x="-419" y="417" width="40" height="30" as="geometry" />
        </mxCell>
        <mxCell id="ugWdAH9gTy0CYIlYv7zM-69" value="&lt;font face=&quot;Verdana&quot; style=&quot;font-size: 16px;&quot;&gt;&lt;b&gt;1&lt;/b&gt;&lt;/font&gt;" style="rounded=0;whiteSpace=wrap;html=1;fillColor=#e1d5e7;strokeColor=#0d0c0d;" vertex="1" parent="1">
          <mxGeometry x="-379" y="447" width="40" height="30" as="geometry" />
        </mxCell>
        <mxCell id="ugWdAH9gTy0CYIlYv7zM-70" value="&lt;font face=&quot;Verdana&quot; style=&quot;font-size: 16px;&quot;&gt;&lt;b&gt;2&lt;/b&gt;&lt;/font&gt;" style="rounded=0;whiteSpace=wrap;html=1;fillColor=#e1d5e7;strokeColor=#0d0c0d;" vertex="1" parent="1">
          <mxGeometry x="-339" y="447" width="40" height="30" as="geometry" />
        </mxCell>
      </root>
    </mxGraphModel>
  </diagram>
</mxfile>
